<svg width="203" height="464" viewBox="0 0 203 464" fill="none" xmlns="http://www.w3.org/2000/svg">
<path fill-rule="evenodd" clip-rule="evenodd" d="M19.3576 2.17636C66.1314 10.5229 93.5438 56.3444 127.618 89.4679C156.126 117.181 193.055 140.462 201.571 179.305C209.822 216.936 180.03 250.38 171.117 287.86C161.033 330.265 174.718 380.133 146.017 412.929C115.505 447.795 65.5457 457.753 19.3576 461.272C-29.7808 465.017 -89.9716 470.709 -122.143 433.363C-154.775 395.483 -120.013 336.141 -130.548 287.257C-139.36 246.367 -179.576 216.196 -177.952 174.398C-176.079 126.168 -157.497 76.811 -121.142 45.0782C-83.3202 12.0655 -30.0571 -6.64139 19.3576 2.17636Z" fill="#A5EBBF"/>
</svg>
